<?xml version="1.0" standalone="no"?>
<!DOCTYPE svg PUBLIC "-//W3C//DTD SVG 20010904//EN"
 "http://www.w3.org/TR/2001/REC-SVG-20010904/DTD/svg10.dtd">
<svg version="1.0" xmlns="http://www.w3.org/2000/svg"
 width="512.000000pt" height="512.000000pt" viewBox="0 0 512.000000 512.000000"
 preserveAspectRatio="xMidYMid meet">

<g transform="translate(0.000000,512.000000) scale(0.100000,-0.100000)"
fill="#000000" stroke="none">
<path d="M2320 5109 c-491 -47 -982 -247 -1365 -556 -600 -484 -955 -1225
-955 -1993 0 -577 205 -1156 567 -1605 484 -600 1225 -955 1993 -955 577 0
1156 205 1605 567 600 484 955 1225 955 1993 0 577 -205 1156 -567 1605 -436
540 -1072 880 -1768 945 -125 11 -340 11 -465 -1z m1189 -875 c222 -46 364
-161 422 -343 29 -90 37 -277 16 -378 -31 -144 -93 -263 -196 -375 -150 -162
-333 -265 -590 -330 -102 -25 -187 -38 -436 -65 l-70 -8 -11 -105 c-19 -166
-34 -460 -34 -645 0 -93 -7 -219 -15 -280 -8 -60 -15 -111 -15 -112 0 -8 286
-144 347 -166 151 -55 339 -61 433 -15 72 35 202 157 331 310 198 233 232 263
279 238 30 -16 43 -83 37 -185 -13 -198 -103 -373 -286 -556 -144 -143 -276
-221 -460 -271 -61 -17 -107 -21 -236 -22 -140 -1 -170 2 -245 23 -104 30
-281 104 -375 158 l-70 40 -60 -52 c-189 -165 -382 -237 -635 -236 -195 0
-307 38 -398 134 -63 68 -96 132 -116 230 -49 235 26 408 217 502 126 61 177
70 403 70 l201 0 7 150 c13 287 48 575 97 799 11 49 18 90 17 91 -2 1 -32 19
-68 40 -134 79 -262 196 -276 250 -9 38 1 111 20 140 11 17 26 25 44 25 39 0
127 -27 187 -58 48 -24 186 -75 190 -69 2 1 26 61 54 132 173 442 402 734 686
878 65 33 174 65 256 77 81 11 252 3 348 -16z"/>
<path d="M3102 3785 c-152 -77 -274 -272 -356 -573 l-25 -93 27 5 c15 2 50 7
77 11 255 31 546 203 624 369 38 82 26 201 -28 260 -38 42 -80 56 -169 56 -71
0 -87 -4 -150 -35z"/>
<path d="M1613 1436 c-47 -22 -75 -71 -70 -124 8 -73 63 -112 157 -112 86 0
154 39 190 110 38 75 37 78 -27 107 -71 33 -198 42 -250 19z"/>
</g>
</svg>
